<svg width="40" height="40" viewBox="0 0 40 40" fill="none" xmlns="http://www.w3.org/2000/svg">
<path d="M7.04227 22.8297L7.04244 22.8297C7.3787 22.8212 7.71444 22.8229 8.04136 22.8246L8.10087 22.8249C8.44931 22.8267 8.78821 22.8277 9.12492 22.8167L7.04227 22.8297ZM7.04227 22.8297C6.99176 22.831 6.97565 22.8225 6.97158 22.8204L6.97126 22.8202C6.96301 22.816 6.93706 22.8003 6.88934 22.7415L6.8893 22.7415M7.04227 22.8297L6.8893 22.7415M6.8893 22.7415C6.32963 22.0531 6.36616 21.0885 7.04705 20.3876L7.04707 20.3876M6.8893 22.7415L7.04707 20.3876M7.04707 20.3876C8.18997 19.2112 9.33631 18.0389 10.4834 16.866C10.9769 16.3613 11.4706 15.8565 11.9641 15.3511L11.9641 15.3511M7.04707 20.3876L11.9641 15.3511M11.9641 15.3511C12.6861 14.6119 13.408 13.8726 14.1298 13.1334C15.7545 11.4696 17.3791 9.8059 19.0044 8.14282L19.0044 8.14281M11.9641 15.3511L19.0044 8.14281M19.0044 8.14281C19.4502 7.68664 19.8947 7.50121 20.2946 7.50001M19.0044 8.14281L20.2946 7.50001M21.0626 27.387H21.0627C21.6405 27.3886 22.1663 27.5316 22.5416 27.9156C22.915 28.2975 23.0519 28.8286 23.0521 29.4126C23.0523 30.0047 23.053 30.5972 23.0538 31.1899C23.0563 33.1911 23.0588 35.1952 23.0409 37.1985C23.041 37.1985 23.0412 37.1985 23.0413 37.1985C24.3856 37.1848 25.7312 37.1866 27.0735 37.1884C27.5866 37.1891 28.0991 37.1898 28.6109 37.1897C29.3111 37.1894 29.7667 37.0006 30.0503 36.7102C30.3358 36.4179 30.5231 35.9449 30.5232 35.2197C30.5233 34.534 30.5235 33.8485 30.5237 33.163C30.5246 30.0197 30.5255 26.8776 30.515 23.7353M21.0626 27.387L33.5582 22.8288C33.2402 22.8222 32.9219 22.8239 32.6114 22.8255C32.5675 22.8258 32.5238 22.826 32.4802 22.8262C32.1253 22.8279 31.7797 22.828 31.4369 22.815C31.2635 22.8084 30.9495 22.8124 30.7251 23.0555C30.5183 23.2795 30.5144 23.5794 30.515 23.7353M21.0626 27.387C20.7094 27.386 20.3558 27.3863 20.0032 27.3866C19.8775 27.3867 19.7518 27.3868 19.6264 27.3868H19.6264M21.0626 27.387L19.6264 27.3868M30.515 23.7353L31.015 23.7336M30.515 23.7353C30.515 23.7353 30.515 23.7354 30.515 23.7355L31.015 23.7336M31.015 23.7336C31.0138 23.4007 31.0886 23.3021 31.418 23.3146C31.8163 23.3298 32.2154 23.3276 32.6144 23.3255C32.9256 23.3239 33.2368 23.3222 33.5478 23.3287C33.7752 23.3335 33.9254 23.2507 34.0689 23.0821L23.0421 37.2788C23.0426 37.2876 23.0432 37.2954 23.0438 37.3025C23.0448 37.3133 23.0459 37.3213 23.0468 37.3267C23.0478 37.3322 23.0484 37.3346 23.0484 37.3345C23.0484 37.3345 23.0469 37.3288 23.0425 37.3192L23.0463 37.6985M31.015 23.7336C31.0255 26.8768 31.0246 30.02 31.0237 33.1632C31.0235 33.8487 31.0233 34.5342 31.0232 35.2197C31.023 36.8332 30.1869 37.6892 28.6111 37.6897C28.0974 37.6898 27.5837 37.6891 27.07 37.6884C25.7287 37.6866 24.3875 37.6848 23.0463 37.6985M23.0463 37.6985C22.6694 37.7023 22.5369 37.6336 22.5408 37.2038C22.5588 35.2 22.5563 33.196 22.5538 31.192C22.553 30.5989 22.5523 30.0059 22.5521 29.4128C22.5518 28.3838 22.068 27.8898 21.0613 27.887L23.0425 37.319L23.0463 37.6985ZM19.6264 27.3868C19.0093 27.3871 18.4473 27.5095 18.0528 27.9085M19.6264 27.3868L18.0528 27.9085M17.5473 37.1974C16.3336 37.1872 15.1174 37.1881 13.9039 37.189C13.2075 37.1895 12.5121 37.19 11.8185 37.1884C11.254 37.1871 10.8281 36.9986 10.5427 36.7035C10.2557 36.4068 10.069 35.9587 10.0682 35.3637C10.0664 34.0102 10.0668 32.6567 10.0671 31.3028C10.0673 30.7425 10.0675 30.1821 10.0675 29.6215C10.0675 29.1153 10.0667 28.6097 10.0659 28.1046C10.0636 26.6511 10.0613 25.2014 10.0779 23.7507M17.5473 37.1974L10.0779 23.7507M17.5473 37.1974C17.5361 35.2132 17.5375 33.2285 17.5388 31.2457C17.5392 30.6611 17.5396 30.0766 17.5397 29.4924L17.5473 37.1974ZM10.0779 23.7507C10.0779 23.7507 10.0779 23.7508 10.0779 23.7508L9.57796 23.745L10.0779 23.7507ZM10.0779 23.7507C10.0802 23.5551 10.064 23.2354 9.81645 23.0139M10.0779 23.7507L9.81645 23.0139M9.81645 23.0139C9.58184 22.804 9.27429 22.8117 9.12511 22.8167L9.81645 23.0139ZM20.2946 7.50001C20.6939 7.49881 21.1364 7.68102 21.5797 8.13461M20.2946 7.50001L21.5797 8.13461M21.5797 8.13461C25.5574 12.2042 29.5336 16.275 33.5081 20.3478M21.5797 8.13461L33.5081 20.3478M33.5081 20.3478C34.2307 21.0883 34.261 22.0847 33.6882 22.758L33.5081 20.3478ZM18.0528 27.9085C17.6596 28.3062 17.5397 28.871 17.5397 29.4923L18.0528 27.9085Z" fill="#9B2D2E" stroke="#9B2D2E"/>
<circle cx="20" cy="20" r="19" stroke="#9B2D2E" stroke-width="2"/>
</svg>
